# xmcd
#
# Track frame offsets: 
#        150
#        16317
#        32460
#        49287
#        67090
#        83355
#        99982
#        114402
#        128167
#        143665
#
# Disc length: 2123 seconds
#
# Revision: 0
# Processed by: cddbd v1.5.1PL2 Copyright (c) Steve Scherf et al.
# Submitted via: ExactAudioCopy v0.95b4
#
DISCID=7708490a
DTITLE=แอนนา  อริสา - อดมีแฟนคนร้อยเอ็ด
DYEAR=1900
DGENRE=Country
TTITLE0=อดมีแฟนคนร้อยเอ็ด
TTITLE1=ให้ฟ่าวมาขอ
TTITLE2=หนูร้องน้องช้ำ
TTITLE3=เดี๋ยวจัดให้
TTITLE4=โทรศัพท์ผิดเบอร์
TTITLE5=คิดฮอดอ้ายแดง
TTITLE6=อ้า'าวรูปหล่อ
TTITLE7=รักหนุ่ม ปวส.
TTITLE8=คนบ่ใจ
TTITLE9=ทำได้อย่างไร
EXTD=
EXTT0=
EXTT1=
EXTT2=
EXTT3=
EXTT4=
EXTT5=
EXTT6=
EXTT7=
EXTT8=
EXTT9=
PLAYORDER=
